<?xml version="1.0" encoding="utf-8"?>
<!-- Generator: Adobe Illustrator 15.0.2, SVG Export Plug-In . SVG Version: 6.00 Build 0)  -->
<!DOCTYPE svg PUBLIC "-//W3C//DTD SVG 1.1//EN" "http://www.w3.org/Graphics/SVG/1.1/DTD/svg11.dtd">
<svg version="1.1" id="Ebene_1" xmlns="http://www.w3.org/2000/svg" xmlns:xlink="http://www.w3.org/1999/xlink" x="0px" y="0px"
	 width="330px" height="66.959px" viewBox="0 0 330 66.959" enable-background="new 0 0 330 66.959" xml:space="preserve">
<g>
	<polygon fill="#FFFFFF" points="77.31,38.124 77.31,0.802 87.17,0.802 87.17,14.931 91.866,14.931 100.341,0.802 111.274,0.802 
		99.544,18.983 111.801,38.124 100.876,38.124 91.809,23.73 87.17,23.73 87.17,38.124 	"/>
	<polygon fill="#FFFFFF" points="125.446,0.803 125.446,29.589 142.509,29.589 142.509,38.124 115.588,38.124 115.588,0.803 	"/>
	<rect x="146.292" y="0.802" fill="#FFFFFF" width="9.861" height="37.321"/>
	<g>
		<path fill="#FFFFFF" d="M159.938,38.124V0.802h9.326l14.608,21.431c-0.16-1.76-0.215-4.108-0.215-6.185V0.802h9.866v37.321h-9.33
			l-14.608-21.381c0.158,1.76,0.216,4.108,0.216,6.13v15.251H159.938z"/>
		<path fill="#FFFFFF" d="M217.887,0c4,0,8.052,0.853,11.571,2.348v9.331c-2.772-1.921-6.556-2.985-10.29-2.985
			c-6.027,0-11.725,3.09-11.725,10.766c0,9.222,6.768,10.983,11.032,10.983c1.066,0,1.917-0.101,2.559-0.267V17.594h9.327v18.823
			c-3.836,1.6-8.155,2.508-12.367,2.508c-10.611,0-20.688-5.92-20.688-19.465C197.307,5.543,207.494,0,217.887,0"/>
		<polygon fill="#FFFFFF" points="244.007,0.803 244.007,29.589 261.07,29.589 261.07,38.124 234.145,38.124 234.145,0.803 		"/>
		<polygon fill="#FFFFFF" points="291.724,0.803 291.724,9.331 274.715,9.331 274.715,15.035 290.123,15.035 290.123,23.514 
			274.715,23.514 274.715,29.589 292.044,29.589 292.044,38.124 264.853,38.124 264.853,0.803 		"/>
		<path fill="#FFFFFF" d="M295.826,38.124V0.802h15.729c7.565,0,15.302,2.719,15.302,12.583c0,6.185-3.042,9.542-7.145,11.192
			L330,38.124h-11.141l-8.907-12.156h-4.267v12.156H295.826z M305.686,17.97h6.296c2.831,0,4.746-1.439,4.746-4.319
			c0-2.88-1.915-4.321-4.746-4.321h-6.296V17.97z"/>
		<path fill="#FFFFFF" d="M61.6,62.4H0V0.803h61.6V62.4z M5.33,57.068h50.938V6.131H5.33V57.068z"/>
		<path fill="#FFFFFF" d="M19.97,29.889c1.133-0.637,2.35-1.288,3.732-1.82c0.69-0.271,1.42-0.512,2.257-0.666
			c0.203-0.047,0.435-0.065,0.658-0.094l0.083-0.01l0.126-0.004l0.132-0.007l0.282-0.011c0.526,0.011,0.968,0.057,1.43,0.159
			c0.918,0.205,1.78,0.612,2.488,1.082c0.713,0.475,1.316,0.979,1.879,1.433c1.107,0.932,2.093,1.591,3.19,1.898
			c0.549,0.142,1.127,0.215,1.726,0.218c0.292,0,0.563-0.022,0.835-0.051l-1.749-2.73L48.292,11.84H37.804l-8.132,13.559h-4.504
			V11.84h-9.46v20.785c0.374-0.268,0.757-0.537,1.172-0.811C17.81,31.185,18.836,30.519,19.97,29.889"/>
		<path fill="#FFFFFF" d="M47.519,33.132c1.926-1.181,3.412-2.322,4.432-3.142c1.017-0.82,1.554-1.346,1.554-1.346
			s-0.681,0.299-1.875,0.821c-1.191,0.518-2.885,1.256-4.911,2.08c-1.017,0.399-2.123,0.817-3.284,1.219
			c-1.166,0.394-2.407,0.746-3.651,0.976c-0.345,0.057-0.669,0.101-0.995,0.132c-0.272,0.03-0.543,0.051-0.836,0.051
			c-0.6-0.004-1.176-0.077-1.725-0.224c-1.098-0.301-2.082-0.964-3.189-1.896c-0.564-0.451-1.167-0.957-1.88-1.429
			c-0.709-0.471-1.569-0.883-2.489-1.083c-0.461-0.105-0.904-0.151-1.43-0.158l-0.281,0.009l-0.132,0.004l-0.126,0.006l-0.083,0.013
			c-0.223,0.023-0.455,0.045-0.657,0.089c-0.837,0.159-1.568,0.4-2.258,0.665c-1.382,0.534-2.598,1.189-3.732,1.826
			c-1.134,0.629-2.159,1.294-3.09,1.921c-0.414,0.277-0.799,0.547-1.171,0.814c-1.312,0.933-2.378,1.786-3.164,2.431
			C11.541,37.749,11,38.27,11,38.27s0.681-0.301,1.871-0.835c0.749-0.341,1.721-0.784,2.836-1.291v13.36h9.46V35.695h4.451
			l8.697,13.809H48.8l-8.389-13.096c1.448-0.382,2.725-0.94,3.901-1.506C45.497,34.34,46.561,33.725,47.519,33.132 M26.835,32.077
			h0.037h-0.015H26.835L26.835,32.077z"/>
		<path fill="#FFFFFF" d="M88.946,62.076c0,0.066-0.018,0.127-0.05,0.176c-0.034,0.049-0.092,0.09-0.175,0.117
			c-0.083,0.029-0.194,0.055-0.33,0.076c-0.138,0.02-0.307,0.031-0.507,0.031c-0.216,0-0.391-0.012-0.524-0.031
			c-0.134-0.021-0.242-0.047-0.324-0.076c-0.084-0.027-0.143-0.068-0.175-0.117c-0.033-0.049-0.05-0.109-0.05-0.176V54.91h-7.353
			v7.166c0,0.066-0.018,0.127-0.051,0.176c-0.033,0.049-0.091,0.09-0.174,0.117c-0.083,0.029-0.194,0.055-0.331,0.076
			c-0.138,0.02-0.311,0.031-0.519,0.031c-0.199,0-0.37-0.012-0.511-0.031c-0.143-0.021-0.255-0.047-0.337-0.076
			c-0.083-0.027-0.142-0.068-0.175-0.117c-0.034-0.049-0.05-0.109-0.05-0.176V46.57c0-0.066,0.016-0.125,0.05-0.176
			c0.033-0.05,0.092-0.089,0.175-0.119s0.195-0.054,0.337-0.074c0.141-0.021,0.312-0.031,0.511-0.031
			c0.208,0,0.381,0.01,0.519,0.031c0.137,0.021,0.249,0.045,0.331,0.074c0.083,0.029,0.141,0.068,0.174,0.119
			c0.033,0.051,0.051,0.109,0.051,0.176v6.467h7.353V46.57c0-0.066,0.017-0.125,0.05-0.176c0.033-0.05,0.091-0.089,0.175-0.119
			c0.082-0.029,0.19-0.054,0.324-0.074c0.133-0.021,0.308-0.031,0.524-0.031c0.201,0,0.37,0.01,0.507,0.031
			c0.136,0.021,0.247,0.045,0.33,0.074c0.083,0.029,0.141,0.068,0.175,0.119c0.032,0.051,0.05,0.109,0.05,0.176V62.076z"/>
		<path fill="#FFFFFF" d="M102.593,55.984c0,0.324-0.082,0.557-0.244,0.691c-0.164,0.137-0.349,0.207-0.56,0.207H94.39
			c0,0.625,0.062,1.186,0.187,1.686c0.126,0.5,0.335,0.928,0.626,1.287c0.294,0.357,0.675,0.631,1.143,0.824
			c0.469,0.189,1.042,0.285,1.72,0.285c0.535,0,1.012-0.043,1.43-0.131c0.417-0.088,0.781-0.186,1.085-0.293
			c0.305-0.107,0.556-0.205,0.753-0.293c0.196-0.088,0.344-0.133,0.445-0.133c0.058,0,0.11,0.016,0.156,0.045
			c0.047,0.029,0.082,0.072,0.107,0.131s0.044,0.141,0.056,0.244c0.013,0.104,0.019,0.229,0.019,0.381
			c0,0.107-0.004,0.203-0.013,0.281c-0.009,0.078-0.018,0.148-0.031,0.211s-0.033,0.119-0.063,0.172
			c-0.029,0.049-0.066,0.096-0.112,0.141c-0.045,0.047-0.18,0.121-0.406,0.225c-0.224,0.105-0.515,0.207-0.873,0.307
			c-0.358,0.1-0.773,0.189-1.242,0.27c-0.471,0.078-0.972,0.115-1.505,0.115c-0.924,0-1.733-0.127-2.428-0.385
			c-0.695-0.26-1.28-0.643-1.753-1.15c-0.477-0.508-0.834-1.143-1.075-1.908c-0.242-0.766-0.363-1.656-0.363-2.672
			c0-0.967,0.125-1.834,0.375-2.605c0.249-0.77,0.61-1.422,1.08-1.959c0.47-0.537,1.039-0.949,1.705-1.234
			c0.665-0.289,1.411-0.432,2.234-0.432c0.883,0,1.634,0.141,2.254,0.422c0.619,0.285,1.128,0.666,1.528,1.145
			s0.693,1.043,0.88,1.686c0.188,0.645,0.282,1.334,0.282,2.066V55.984z M100.521,55.371c0.023-1.082-0.216-1.93-0.724-2.547
			c-0.506-0.613-1.257-0.922-2.255-0.922c-0.51,0-0.958,0.094-1.343,0.287c-0.385,0.189-0.708,0.445-0.967,0.76
			c-0.26,0.316-0.462,0.686-0.604,1.104c-0.142,0.424-0.222,0.863-0.238,1.318H100.521z"/>
		<path fill="#FFFFFF" d="M108.024,47.057c0,0.482-0.093,0.813-0.276,0.986c-0.183,0.174-0.52,0.264-1.011,0.264
			c-0.481,0-0.813-0.088-0.993-0.258c-0.178-0.17-0.269-0.492-0.269-0.967c0-0.482,0.092-0.812,0.275-0.987
			c0.184-0.176,0.52-0.263,1.012-0.263c0.482,0,0.813,0.085,0.992,0.257C107.936,46.259,108.024,46.582,108.024,47.057
			 M107.787,62.088c0,0.068-0.018,0.125-0.051,0.17c-0.033,0.045-0.087,0.086-0.162,0.119c-0.075,0.033-0.179,0.057-0.312,0.074
			c-0.134,0.016-0.305,0.025-0.513,0.025c-0.199,0-0.366-0.01-0.5-0.025c-0.133-0.018-0.239-0.041-0.318-0.074
			c-0.079-0.033-0.132-0.074-0.162-0.119s-0.043-0.102-0.043-0.17V50.854c0-0.059,0.014-0.113,0.043-0.164s0.083-0.092,0.162-0.125
			c0.079-0.033,0.186-0.059,0.318-0.074c0.133-0.018,0.3-0.025,0.5-0.025c0.208,0,0.379,0.008,0.513,0.025
			c0.132,0.016,0.236,0.041,0.312,0.074c0.075,0.033,0.128,0.074,0.162,0.125c0.033,0.051,0.051,0.105,0.051,0.164V62.088z"/>
		<path fill="#FFFFFF" d="M118.761,61.527c0,0.158-0.013,0.293-0.037,0.406c-0.025,0.111-0.054,0.203-0.087,0.275
			c-0.034,0.07-0.08,0.119-0.138,0.148s-0.12,0.043-0.188,0.043h-6.916c-0.175,0-0.319-0.057-0.431-0.174
			c-0.112-0.115-0.168-0.313-0.168-0.588v-0.422c0-0.119,0.008-0.223,0.025-0.314c0.016-0.09,0.041-0.182,0.074-0.273
			s0.079-0.189,0.138-0.293c0.059-0.104,0.128-0.225,0.212-0.357l4.957-7.715h-4.807c-0.134,0-0.24-0.07-0.319-0.207
			c-0.078-0.137-0.118-0.359-0.118-0.668c0-0.148,0.006-0.281,0.024-0.393c0.016-0.113,0.042-0.203,0.081-0.273
			c0.037-0.072,0.082-0.123,0.137-0.152c0.054-0.027,0.119-0.043,0.194-0.043h6.442c0.092,0,0.173,0.012,0.243,0.037
			c0.072,0.025,0.132,0.068,0.182,0.125c0.05,0.059,0.09,0.135,0.119,0.225c0.03,0.092,0.045,0.207,0.045,0.352v0.398
			c0,0.115-0.009,0.225-0.025,0.324c-0.017,0.1-0.042,0.199-0.075,0.293c-0.034,0.096-0.079,0.197-0.138,0.305
			c-0.059,0.111-0.129,0.23-0.212,0.363l-4.933,7.717h5.269c0.068,0,0.127,0.014,0.182,0.045c0.054,0.029,0.1,0.076,0.138,0.143
			c0.037,0.066,0.068,0.156,0.093,0.268C118.749,61.234,118.761,61.369,118.761,61.527"/>
		<path fill="#FFFFFF" d="M131.198,62.088c0,0.068-0.015,0.125-0.044,0.17c-0.029,0.045-0.081,0.086-0.155,0.119
			c-0.075,0.033-0.174,0.057-0.294,0.074c-0.12,0.016-0.269,0.025-0.442,0.025c-0.192,0-0.348-0.01-0.468-0.025
			c-0.121-0.018-0.216-0.041-0.287-0.074s-0.119-0.074-0.144-0.119c-0.025-0.045-0.038-0.102-0.038-0.17v-1.484
			c-0.641,0.707-1.274,1.225-1.899,1.549c-0.624,0.324-1.256,0.484-1.896,0.484c-0.749,0-1.38-0.121-1.892-0.373
			c-0.512-0.25-0.926-0.588-1.243-1.018c-0.317-0.428-0.543-0.928-0.679-1.496c-0.138-0.572-0.207-1.264-0.207-2.08v-6.816
			c0-0.066,0.014-0.125,0.043-0.17c0.029-0.047,0.084-0.088,0.168-0.125c0.084-0.037,0.191-0.063,0.325-0.074
			c0.133-0.014,0.3-0.02,0.499-0.02c0.2,0,0.366,0.006,0.499,0.02c0.133,0.012,0.24,0.037,0.319,0.074
			c0.078,0.037,0.135,0.078,0.167,0.125c0.034,0.045,0.05,0.104,0.05,0.17v6.539c0,0.66,0.049,1.186,0.145,1.582
			c0.095,0.395,0.242,0.73,0.437,1.01c0.196,0.279,0.443,0.496,0.742,0.652c0.3,0.152,0.65,0.229,1.049,0.229
			c0.516,0,1.03-0.182,1.542-0.549c0.512-0.367,1.055-0.902,1.63-1.611v-7.852c0-0.066,0.015-0.125,0.043-0.17
			c0.029-0.047,0.085-0.088,0.168-0.125c0.083-0.037,0.188-0.063,0.318-0.074c0.129-0.014,0.298-0.02,0.505-0.02
			c0.2,0,0.367,0.006,0.5,0.02c0.133,0.012,0.237,0.037,0.312,0.074c0.075,0.037,0.132,0.078,0.168,0.125
			c0.037,0.045,0.058,0.104,0.058,0.17V62.088z"/>
		<path fill="#FFFFFF" d="M144.682,62.088c0,0.068-0.017,0.125-0.049,0.17c-0.034,0.045-0.088,0.086-0.163,0.119
			s-0.179,0.057-0.313,0.074c-0.133,0.016-0.299,0.025-0.5,0.025c-0.208,0-0.378-0.01-0.512-0.025
			c-0.132-0.018-0.237-0.041-0.312-0.074s-0.129-0.074-0.163-0.119c-0.032-0.045-0.048-0.102-0.048-0.17v-6.58
			c0-0.641-0.05-1.156-0.151-1.547c-0.1-0.393-0.245-0.729-0.436-1.012c-0.193-0.281-0.44-0.5-0.742-0.648
			c-0.305-0.148-0.656-0.227-1.056-0.227c-0.517,0-1.032,0.186-1.548,0.553c-0.518,0.363-1.058,0.9-1.625,1.609v7.852
			c0,0.068-0.016,0.125-0.05,0.17c-0.032,0.045-0.087,0.086-0.161,0.119c-0.076,0.033-0.179,0.057-0.312,0.074
			c-0.134,0.016-0.305,0.025-0.513,0.025c-0.201,0-0.367-0.01-0.5-0.025c-0.132-0.018-0.24-0.041-0.318-0.074
			c-0.079-0.033-0.134-0.074-0.162-0.119c-0.029-0.045-0.043-0.102-0.043-0.17V50.854c0-0.066,0.013-0.125,0.037-0.17
			c0.025-0.047,0.074-0.088,0.15-0.125c0.075-0.037,0.17-0.063,0.287-0.074c0.117-0.014,0.271-0.02,0.462-0.02
			c0.183,0,0.334,0.006,0.454,0.02c0.122,0.012,0.215,0.037,0.282,0.074s0.114,0.078,0.144,0.125
			c0.029,0.045,0.042,0.104,0.042,0.17v1.484c0.633-0.707,1.263-1.227,1.893-1.555c0.629-0.328,1.262-0.492,1.904-0.492
			c0.749,0,1.38,0.127,1.89,0.379c0.514,0.256,0.927,0.596,1.243,1.02c0.316,0.422,0.543,0.922,0.681,1.492
			c0.137,0.57,0.206,1.254,0.206,2.053V62.088z"/>
		<path fill="#FFFFFF" d="M157.828,51.365c0,0.291-0.039,0.5-0.118,0.629c-0.078,0.131-0.181,0.195-0.305,0.195h-1.611
			c0.292,0.299,0.495,0.629,0.611,0.992c0.117,0.361,0.175,0.736,0.175,1.129c0,0.648-0.104,1.223-0.313,1.725
			c-0.208,0.498-0.505,0.922-0.892,1.268c-0.387,0.344-0.847,0.609-1.38,0.791c-0.532,0.182-1.123,0.275-1.772,0.275
			c-0.458,0-0.893-0.061-1.306-0.182c-0.411-0.121-0.729-0.271-0.954-0.457c-0.15,0.152-0.273,0.322-0.369,0.514
			c-0.095,0.191-0.143,0.41-0.143,0.662c0,0.291,0.136,0.531,0.405,0.723c0.27,0.193,0.631,0.297,1.08,0.313l2.936,0.125
			c0.557,0.016,1.068,0.094,1.535,0.232c0.467,0.137,0.87,0.33,1.211,0.586c0.341,0.254,0.608,0.564,0.799,0.936
			c0.191,0.369,0.288,0.803,0.288,1.293c0,0.516-0.108,1.008-0.325,1.473c-0.216,0.467-0.547,0.877-0.992,1.23
			c-0.445,0.354-1.014,0.631-1.706,0.836c-0.689,0.205-1.506,0.307-2.446,0.307c-0.908,0-1.679-0.076-2.317-0.232
			c-0.637-0.152-1.159-0.363-1.566-0.629c-0.409-0.268-0.704-0.586-0.887-0.955c-0.184-0.371-0.275-0.773-0.275-1.205
			c0-0.275,0.033-0.541,0.1-0.799c0.065-0.26,0.168-0.504,0.307-0.738c0.137-0.23,0.308-0.455,0.511-0.666
			c0.203-0.213,0.438-0.424,0.705-0.633c-0.409-0.207-0.709-0.471-0.905-0.785c-0.196-0.316-0.293-0.658-0.293-1.023
			c0-0.51,0.104-0.963,0.312-1.361c0.208-0.4,0.467-0.756,0.774-1.074c-0.259-0.307-0.462-0.656-0.612-1.043
			c-0.149-0.385-0.224-0.855-0.224-1.404c0-0.639,0.107-1.217,0.324-1.723c0.216-0.508,0.517-0.936,0.899-1.285
			c0.382-0.352,0.843-0.619,1.379-0.807s1.122-0.279,1.754-0.279c0.34,0,0.66,0.018,0.955,0.055c0.296,0.037,0.573,0.09,0.831,0.156
			h3.396c0.142,0,0.248,0.068,0.318,0.207C157.794,50.871,157.828,51.08,157.828,51.365 M155.645,63.227
			c0-0.484-0.199-0.857-0.594-1.117c-0.396-0.264-0.93-0.402-1.605-0.422l-2.908-0.096c-0.267,0.207-0.485,0.402-0.656,0.592
			c-0.17,0.186-0.306,0.367-0.405,0.537c-0.101,0.17-0.169,0.338-0.206,0.506c-0.038,0.164-0.056,0.334-0.056,0.512
			c0,0.539,0.275,0.949,0.823,1.23c0.549,0.277,1.315,0.416,2.296,0.416c0.625,0,1.147-0.061,1.568-0.18
			c0.42-0.119,0.76-0.281,1.017-0.48c0.259-0.199,0.443-0.43,0.556-0.688S155.645,63.508,155.645,63.227 M154.607,54.322
			c0-0.764-0.21-1.363-0.63-1.791c-0.42-0.43-1.018-0.643-1.792-0.643c-0.4,0-0.747,0.066-1.042,0.199
			c-0.296,0.135-0.541,0.316-0.736,0.551c-0.196,0.232-0.342,0.502-0.437,0.803c-0.096,0.305-0.144,0.625-0.144,0.957
			c0,0.742,0.21,1.322,0.63,1.748c0.42,0.424,1.01,0.635,1.767,0.635c0.407,0,0.762-0.063,1.062-0.191
			c0.299-0.129,0.547-0.309,0.743-0.537c0.195-0.23,0.34-0.492,0.436-0.793C154.56,54.959,154.607,54.648,154.607,54.322"/>
		<path fill="#FFFFFF" d="M192.515,57.869c0,0.758-0.141,1.432-0.419,2.023c-0.278,0.59-0.666,1.092-1.161,1.504
			s-1.078,0.721-1.748,0.93c-0.67,0.207-1.392,0.311-2.167,0.311c-0.541,0-1.042-0.043-1.504-0.135s-0.873-0.205-1.236-0.338
			c-0.361-0.131-0.666-0.271-0.911-0.412c-0.245-0.143-0.417-0.262-0.511-0.361c-0.097-0.1-0.168-0.229-0.214-0.381
			c-0.045-0.154-0.068-0.361-0.068-0.619c0-0.182,0.009-0.334,0.025-0.455s0.041-0.217,0.075-0.295
			c0.032-0.074,0.075-0.125,0.125-0.154s0.107-0.043,0.175-0.043c0.116,0,0.279,0.07,0.492,0.211
			c0.213,0.143,0.485,0.295,0.818,0.461c0.332,0.168,0.734,0.324,1.204,0.469c0.471,0.146,1.014,0.219,1.63,0.219
			c0.465,0,0.894-0.063,1.279-0.188c0.388-0.125,0.72-0.301,0.999-0.529s0.494-0.512,0.645-0.844
			c0.148-0.334,0.224-0.711,0.224-1.137c0-0.457-0.104-0.85-0.313-1.172c-0.208-0.326-0.482-0.609-0.823-0.855
			c-0.342-0.246-0.731-0.471-1.168-0.674c-0.437-0.205-0.884-0.414-1.342-0.625s-0.903-0.447-1.336-0.705
			c-0.434-0.26-0.821-0.564-1.162-0.91c-0.341-0.352-0.617-0.762-0.829-1.232c-0.213-0.471-0.318-1.033-0.318-1.691
			c0-0.674,0.122-1.275,0.366-1.803c0.247-0.529,0.588-0.973,1.026-1.33c0.436-0.359,0.956-0.631,1.56-0.819
			c0.604-0.187,1.255-0.28,1.954-0.28c0.357,0,0.718,0.031,1.08,0.094c0.361,0.062,0.703,0.145,1.023,0.248
			c0.32,0.107,0.606,0.222,0.854,0.351c0.251,0.127,0.415,0.234,0.494,0.313s0.131,0.141,0.156,0.186
			c0.025,0.047,0.045,0.104,0.063,0.176c0.017,0.072,0.029,0.156,0.037,0.256c0.009,0.1,0.013,0.23,0.013,0.387
			c0,0.15-0.006,0.283-0.019,0.4c-0.013,0.115-0.031,0.213-0.056,0.293c-0.026,0.08-0.062,0.139-0.106,0.176
			c-0.046,0.037-0.099,0.055-0.156,0.055c-0.092,0-0.235-0.057-0.432-0.176c-0.194-0.115-0.436-0.246-0.717-0.393
			c-0.283-0.146-0.618-0.277-1.005-0.398c-0.388-0.119-0.822-0.182-1.306-0.182c-0.449,0-0.841,0.063-1.173,0.182
			c-0.333,0.121-0.608,0.279-0.825,0.48c-0.215,0.197-0.378,0.438-0.486,0.711c-0.108,0.275-0.162,0.566-0.162,0.875
			c0,0.449,0.104,0.836,0.312,1.162c0.209,0.322,0.485,0.611,0.831,0.859c0.345,0.25,0.737,0.479,1.179,0.688
			s0.892,0.418,1.349,0.631c0.458,0.213,0.908,0.443,1.35,0.699c0.439,0.254,0.834,0.553,1.18,0.898
			c0.345,0.346,0.625,0.754,0.837,1.223C192.407,56.672,192.515,57.229,192.515,57.869"/>
		<path fill="#FFFFFF" d="M203.813,62.104c0,0.1-0.033,0.174-0.1,0.223c-0.066,0.051-0.158,0.088-0.275,0.111
			c-0.116,0.025-0.286,0.039-0.512,0.039c-0.216,0-0.39-0.014-0.52-0.039c-0.127-0.023-0.222-0.061-0.279-0.111
			c-0.059-0.049-0.087-0.123-0.087-0.223v-1.125c-0.491,0.523-1.038,0.932-1.643,1.225c-0.603,0.289-1.242,0.434-1.916,0.434
			c-0.592,0-1.126-0.074-1.604-0.229c-0.479-0.154-0.888-0.375-1.224-0.668c-0.338-0.293-0.601-0.65-0.787-1.074
			c-0.188-0.424-0.281-0.906-0.281-1.449c0-0.633,0.129-1.182,0.387-1.646c0.258-0.467,0.629-0.854,1.111-1.16
			c0.483-0.311,1.074-0.539,1.772-0.695c0.7-0.152,1.486-0.23,2.361-0.23h1.548v-0.873c0-0.434-0.046-0.816-0.137-1.15
			c-0.093-0.332-0.241-0.609-0.443-0.828c-0.204-0.223-0.469-0.389-0.794-0.5c-0.324-0.113-0.725-0.17-1.198-0.17
			c-0.508,0-0.964,0.061-1.368,0.182c-0.403,0.121-0.757,0.254-1.061,0.398c-0.305,0.146-0.558,0.279-0.762,0.4
			c-0.204,0.119-0.355,0.18-0.455,0.18c-0.066,0-0.126-0.014-0.176-0.049c-0.049-0.031-0.093-0.084-0.131-0.148
			c-0.037-0.068-0.064-0.152-0.081-0.256c-0.017-0.105-0.024-0.221-0.024-0.344c0-0.207,0.014-0.373,0.043-0.494
			c0.029-0.119,0.101-0.236,0.213-0.344s0.305-0.234,0.58-0.381c0.275-0.145,0.591-0.277,0.948-0.4
			c0.358-0.119,0.749-0.219,1.175-0.299c0.424-0.078,0.853-0.117,1.286-0.117c0.807,0,1.493,0.092,2.061,0.273
			c0.565,0.184,1.022,0.451,1.372,0.807c0.351,0.354,0.603,0.793,0.763,1.316c0.156,0.525,0.236,1.137,0.236,1.836V62.104z
			 M201.767,56.971h-1.762c-0.565,0-1.057,0.047-1.473,0.143s-0.762,0.236-1.036,0.426c-0.274,0.186-0.477,0.41-0.605,0.674
			c-0.129,0.262-0.193,0.564-0.193,0.904c0,0.584,0.185,1.049,0.556,1.393c0.37,0.346,0.889,0.518,1.555,0.518
			c0.541,0,1.042-0.137,1.504-0.412c0.462-0.273,0.946-0.693,1.455-1.26V56.971z"/>
		<path fill="#FFFFFF" d="M217.274,62.088c0,0.068-0.019,0.125-0.052,0.17s-0.088,0.086-0.162,0.119s-0.18,0.057-0.313,0.074
			c-0.133,0.016-0.299,0.025-0.5,0.025c-0.207,0-0.379-0.01-0.512-0.025c-0.132-0.018-0.235-0.041-0.311-0.074
			c-0.076-0.033-0.13-0.074-0.163-0.119s-0.05-0.102-0.05-0.17v-6.58c0-0.641-0.05-1.156-0.149-1.547
			c-0.1-0.393-0.247-0.729-0.438-1.012c-0.192-0.281-0.439-0.5-0.743-0.648c-0.303-0.148-0.655-0.227-1.055-0.227
			c-0.517,0-1.032,0.186-1.548,0.553c-0.516,0.363-1.057,0.9-1.624,1.609v7.852c0,0.068-0.017,0.125-0.051,0.17
			c-0.032,0.045-0.088,0.086-0.161,0.119c-0.074,0.033-0.178,0.057-0.313,0.074c-0.133,0.016-0.303,0.025-0.512,0.025
			c-0.199,0-0.367-0.01-0.5-0.025c-0.132-0.018-0.239-0.041-0.318-0.074s-0.133-0.074-0.162-0.119
			c-0.028-0.045-0.043-0.102-0.043-0.17V50.854c0-0.066,0.012-0.125,0.037-0.17c0.024-0.047,0.074-0.088,0.149-0.125
			c0.076-0.037,0.172-0.063,0.288-0.074c0.115-0.014,0.271-0.02,0.462-0.02c0.182,0,0.335,0.006,0.454,0.02
			c0.121,0.012,0.215,0.037,0.283,0.074c0.066,0.037,0.114,0.078,0.143,0.125c0.029,0.045,0.044,0.104,0.044,0.17v1.484
			c0.632-0.707,1.262-1.227,1.892-1.555c0.628-0.328,1.263-0.492,1.904-0.492c0.75,0,1.38,0.127,1.892,0.379
			c0.512,0.256,0.926,0.596,1.24,1.02c0.317,0.422,0.545,0.922,0.682,1.492s0.208,1.254,0.208,2.053V62.088z"/>
		<path fill="#FFFFFF" d="M223.328,47.057c0,0.482-0.091,0.813-0.275,0.986c-0.183,0.174-0.521,0.264-1.012,0.264
			c-0.482,0-0.812-0.088-0.992-0.258c-0.178-0.17-0.268-0.492-0.268-0.967c0-0.482,0.092-0.812,0.274-0.987
			c0.182-0.176,0.52-0.263,1.011-0.263c0.482,0,0.814,0.085,0.992,0.257C223.239,46.259,223.328,46.582,223.328,47.057
			 M223.09,62.088c0,0.068-0.017,0.125-0.05,0.17s-0.087,0.086-0.161,0.119c-0.075,0.033-0.179,0.057-0.312,0.074
			c-0.135,0.016-0.305,0.025-0.514,0.025c-0.199,0-0.366-0.01-0.499-0.025c-0.133-0.018-0.238-0.041-0.317-0.074
			c-0.081-0.033-0.135-0.074-0.163-0.119c-0.029-0.045-0.044-0.102-0.044-0.17V50.854c0-0.059,0.015-0.113,0.044-0.164
			c0.028-0.051,0.082-0.092,0.163-0.125c0.079-0.033,0.185-0.059,0.317-0.074c0.133-0.018,0.3-0.025,0.499-0.025
			c0.209,0,0.379,0.008,0.514,0.025c0.133,0.016,0.236,0.041,0.312,0.074c0.074,0.033,0.128,0.074,0.161,0.125
			s0.05,0.105,0.05,0.164V62.088z"/>
		<path fill="#FFFFFF" d="M232.742,61.266c0,0.24-0.017,0.434-0.05,0.574c-0.032,0.141-0.085,0.246-0.15,0.313
			c-0.066,0.066-0.166,0.129-0.299,0.188c-0.135,0.057-0.286,0.105-0.456,0.143c-0.17,0.039-0.352,0.07-0.543,0.092
			c-0.192,0.025-0.383,0.039-0.573,0.039c-0.585,0-1.084-0.078-1.5-0.23c-0.417-0.154-0.757-0.389-1.023-0.701
			c-0.266-0.311-0.46-0.705-0.58-1.186c-0.12-0.479-0.181-1.041-0.181-1.689v-6.568h-1.574c-0.125,0-0.224-0.066-0.299-0.201
			c-0.074-0.133-0.111-0.348-0.111-0.648c0-0.156,0.01-0.291,0.03-0.4c0.02-0.107,0.048-0.195,0.081-0.266
			c0.033-0.072,0.077-0.123,0.131-0.152s0.114-0.043,0.181-0.043h1.562v-2.67c0-0.061,0.015-0.115,0.044-0.164
			c0.029-0.051,0.083-0.094,0.162-0.131c0.078-0.037,0.184-0.064,0.316-0.08c0.135-0.018,0.304-0.025,0.501-0.025
			c0.207,0,0.379,0.008,0.512,0.025c0.133,0.016,0.236,0.043,0.311,0.08c0.077,0.037,0.131,0.08,0.164,0.131
			c0.033,0.049,0.05,0.104,0.05,0.164v2.67h2.884c0.066,0,0.126,0.014,0.177,0.043c0.047,0.029,0.091,0.08,0.13,0.152
			c0.037,0.07,0.063,0.158,0.081,0.266c0.017,0.109,0.024,0.244,0.024,0.4c0,0.301-0.037,0.516-0.11,0.648
			c-0.078,0.135-0.176,0.201-0.302,0.201h-2.884v6.268c0,0.773,0.114,1.359,0.342,1.756c0.229,0.393,0.641,0.592,1.23,0.592
			c0.193,0,0.362-0.02,0.514-0.057c0.149-0.039,0.282-0.076,0.398-0.117c0.116-0.043,0.218-0.084,0.3-0.121
			c0.083-0.037,0.158-0.055,0.226-0.055c0.04,0,0.079,0.01,0.116,0.031c0.04,0.02,0.066,0.059,0.09,0.119
			c0.021,0.057,0.037,0.137,0.056,0.236C232.734,60.99,232.742,61.115,232.742,61.266"/>
		<path fill="#FFFFFF" d="M243.618,62.104c0,0.1-0.033,0.174-0.1,0.223c-0.068,0.051-0.16,0.088-0.275,0.111
			c-0.119,0.025-0.288,0.039-0.512,0.039c-0.218,0-0.39-0.014-0.519-0.039c-0.128-0.023-0.224-0.061-0.28-0.111
			c-0.06-0.049-0.089-0.123-0.089-0.223v-1.125c-0.49,0.523-1.037,0.932-1.643,1.225c-0.603,0.289-1.241,0.434-1.914,0.434
			c-0.593,0-1.127-0.074-1.605-0.229c-0.479-0.154-0.888-0.375-1.223-0.668c-0.338-0.293-0.6-0.65-0.787-1.074
			c-0.187-0.424-0.282-0.906-0.282-1.449c0-0.633,0.129-1.182,0.388-1.646c0.26-0.467,0.628-0.854,1.11-1.16
			c0.482-0.311,1.075-0.539,1.773-0.695c0.698-0.152,1.484-0.23,2.36-0.23h1.547v-0.873c0-0.434-0.045-0.816-0.137-1.15
			c-0.091-0.332-0.24-0.609-0.443-0.828c-0.203-0.223-0.468-0.389-0.793-0.498c-0.323-0.115-0.724-0.172-1.198-0.172
			c-0.507,0-0.963,0.061-1.367,0.182c-0.403,0.121-0.758,0.254-1.061,0.398c-0.305,0.146-0.558,0.279-0.761,0.4
			c-0.205,0.119-0.356,0.18-0.458,0.18c-0.065,0-0.124-0.014-0.174-0.049c-0.05-0.031-0.093-0.084-0.13-0.15
			c-0.04-0.066-0.064-0.15-0.083-0.254c-0.016-0.105-0.025-0.221-0.025-0.344c0-0.207,0.015-0.373,0.044-0.494
			c0.031-0.119,0.102-0.236,0.213-0.344c0.112-0.107,0.307-0.234,0.58-0.381c0.277-0.145,0.591-0.277,0.949-0.4
			c0.358-0.119,0.75-0.219,1.175-0.297c0.423-0.08,0.852-0.119,1.286-0.119c0.807,0,1.492,0.092,2.06,0.273
			c0.566,0.184,1.023,0.451,1.372,0.807c0.35,0.354,0.604,0.793,0.763,1.316c0.157,0.525,0.238,1.137,0.238,1.836V62.104z
			 M238.374,47.207c0,0.457-0.083,0.77-0.251,0.936c-0.166,0.168-0.475,0.25-0.924,0.25c-0.447,0-0.754-0.08-0.912-0.244
			c-0.157-0.162-0.234-0.463-0.234-0.904c0-0.467,0.079-0.781,0.241-0.95c0.163-0.166,0.47-0.249,0.918-0.249
			c0.458,0,0.767,0.083,0.924,0.249C238.293,46.463,238.374,46.766,238.374,47.207 M241.568,56.971h-1.76
			c-0.566,0-1.058,0.047-1.474,0.143c-0.417,0.096-0.761,0.238-1.034,0.426c-0.274,0.186-0.477,0.41-0.607,0.674
			c-0.128,0.262-0.192,0.564-0.192,0.906c0,0.582,0.185,1.047,0.556,1.391c0.37,0.346,0.889,0.518,1.554,0.518
			c0.54,0,1.042-0.137,1.506-0.412c0.46-0.273,0.945-0.693,1.452-1.26V56.971z M242.793,47.207c0,0.457-0.083,0.77-0.248,0.936
			c-0.168,0.168-0.477,0.25-0.924,0.25c-0.452,0-0.755-0.08-0.912-0.244c-0.16-0.162-0.238-0.463-0.238-0.904
			c0-0.467,0.081-0.781,0.244-0.95c0.162-0.166,0.469-0.249,0.918-0.249c0.458,0,0.765,0.083,0.924,0.249
			C242.715,46.463,242.793,46.766,242.793,47.207"/>
		<path fill="#FFFFFF" d="M253.967,51.588c0,0.184-0.004,0.338-0.013,0.463c-0.006,0.125-0.022,0.223-0.048,0.293
			c-0.026,0.07-0.058,0.125-0.094,0.162c-0.038,0.037-0.089,0.057-0.156,0.057c-0.068,0-0.149-0.02-0.245-0.057
			c-0.095-0.037-0.203-0.074-0.325-0.111c-0.12-0.037-0.255-0.072-0.404-0.105c-0.15-0.033-0.313-0.051-0.486-0.051
			c-0.209,0-0.412,0.041-0.613,0.125c-0.199,0.082-0.41,0.219-0.63,0.412c-0.222,0.191-0.452,0.443-0.694,0.762
			c-0.24,0.316-0.508,0.703-0.798,1.16v7.391c0,0.068-0.017,0.125-0.049,0.17c-0.033,0.047-0.088,0.086-0.162,0.119
			c-0.076,0.033-0.181,0.057-0.313,0.074c-0.135,0.016-0.305,0.025-0.512,0.025c-0.201,0-0.367-0.01-0.5-0.025
			c-0.132-0.018-0.24-0.041-0.318-0.074c-0.079-0.033-0.133-0.072-0.162-0.119c-0.031-0.045-0.043-0.102-0.043-0.17V50.854
			c0-0.066,0.012-0.125,0.037-0.17c0.024-0.045,0.074-0.088,0.149-0.125c0.074-0.037,0.17-0.063,0.285-0.074
			c0.118-0.014,0.271-0.02,0.465-0.02c0.182,0,0.333,0.006,0.453,0.02c0.12,0.012,0.216,0.037,0.282,0.074s0.116,0.08,0.145,0.125
			c0.027,0.045,0.044,0.104,0.044,0.17v1.633c0.308-0.449,0.597-0.814,0.866-1.096c0.271-0.285,0.528-0.508,0.769-0.668
			c0.242-0.164,0.48-0.275,0.717-0.338c0.238-0.063,0.477-0.094,0.719-0.094c0.107,0,0.232,0.006,0.369,0.02
			c0.137,0.012,0.281,0.035,0.431,0.068c0.15,0.033,0.284,0.07,0.406,0.111c0.12,0.041,0.205,0.082,0.255,0.125
			c0.05,0.041,0.083,0.08,0.102,0.119c0.014,0.037,0.03,0.086,0.043,0.143c0.011,0.059,0.019,0.143,0.023,0.256
			C253.967,51.246,253.967,51.396,253.967,51.588"/>
		<path fill="#FFFFFF" d="M288.354,57.869c0,0.758-0.141,1.432-0.42,2.023c-0.276,0.59-0.664,1.092-1.159,1.504
			s-1.079,0.721-1.748,0.93c-0.67,0.207-1.393,0.311-2.165,0.311c-0.543,0-1.045-0.043-1.505-0.135
			c-0.464-0.092-0.876-0.205-1.236-0.338c-0.364-0.131-0.667-0.271-0.912-0.412c-0.247-0.143-0.416-0.262-0.513-0.361
			c-0.094-0.1-0.167-0.229-0.212-0.381c-0.046-0.154-0.068-0.361-0.068-0.619c0-0.182,0.008-0.334,0.024-0.455
			s0.041-0.217,0.074-0.295c0.033-0.074,0.077-0.125,0.125-0.154c0.052-0.029,0.109-0.043,0.176-0.043
			c0.116,0,0.281,0.07,0.493,0.211c0.214,0.143,0.484,0.295,0.818,0.461c0.331,0.168,0.733,0.324,1.204,0.469
			c0.47,0.146,1.013,0.219,1.63,0.219c0.466,0,0.892-0.063,1.278-0.188c0.388-0.125,0.722-0.301,1-0.529s0.492-0.512,0.644-0.844
			c0.149-0.334,0.224-0.711,0.224-1.137c0-0.457-0.104-0.85-0.311-1.172c-0.21-0.326-0.483-0.609-0.825-0.855
			s-0.731-0.471-1.166-0.674c-0.438-0.205-0.885-0.414-1.343-0.625s-0.905-0.447-1.336-0.705c-0.434-0.26-0.821-0.564-1.163-0.91
			c-0.34-0.352-0.617-0.762-0.828-1.232c-0.214-0.471-0.319-1.033-0.319-1.691c0-0.674,0.122-1.275,0.368-1.803
			c0.245-0.529,0.587-0.973,1.024-1.33c0.437-0.359,0.957-0.631,1.56-0.819c0.605-0.187,1.256-0.28,1.954-0.28
			c0.358,0,0.719,0.031,1.079,0.094c0.363,0.062,0.704,0.145,1.026,0.248c0.32,0.107,0.605,0.222,0.854,0.351
			c0.25,0.127,0.415,0.234,0.495,0.313c0.078,0.078,0.13,0.141,0.155,0.186c0.024,0.047,0.045,0.104,0.062,0.176
			s0.029,0.156,0.038,0.256c0.008,0.1,0.012,0.23,0.012,0.387c0,0.15-0.006,0.283-0.019,0.4c-0.013,0.115-0.031,0.213-0.056,0.293
			c-0.025,0.08-0.061,0.139-0.105,0.176c-0.046,0.037-0.1,0.055-0.155,0.055c-0.094,0-0.236-0.057-0.434-0.176
			c-0.194-0.115-0.435-0.246-0.717-0.393c-0.281-0.146-0.617-0.277-1.005-0.398c-0.388-0.119-0.822-0.182-1.304-0.182
			c-0.451,0-0.843,0.063-1.174,0.182c-0.334,0.121-0.609,0.279-0.825,0.48c-0.215,0.197-0.379,0.438-0.486,0.711
			c-0.108,0.275-0.162,0.566-0.162,0.875c0,0.449,0.104,0.836,0.312,1.162c0.209,0.322,0.484,0.611,0.83,0.859
			c0.345,0.25,0.738,0.479,1.179,0.688c0.441,0.209,0.894,0.418,1.35,0.631c0.457,0.213,0.907,0.443,1.349,0.699
			c0.441,0.254,0.835,0.553,1.181,0.898c0.344,0.346,0.624,0.754,0.837,1.223C288.248,56.672,288.354,57.229,288.354,57.869"/>
		<path fill="#FFFFFF" d="M301.638,56.348c0,0.914-0.121,1.756-0.362,2.525c-0.24,0.773-0.601,1.436-1.079,1.992
			c-0.479,0.559-1.077,0.992-1.799,1.307c-0.719,0.311-1.554,0.465-2.503,0.465c-0.924,0-1.729-0.135-2.415-0.41
			c-0.687-0.275-1.26-0.676-1.718-1.199c-0.457-0.523-0.798-1.16-1.023-1.91c-0.224-0.748-0.338-1.598-0.338-2.547
			c0-0.916,0.12-1.758,0.356-2.529c0.238-0.768,0.597-1.434,1.075-1.99c0.477-0.559,1.075-0.99,1.79-1.297
			c0.717-0.309,1.552-0.463,2.511-0.463c0.925,0,1.729,0.137,2.416,0.41c0.686,0.275,1.258,0.676,1.716,1.199
			c0.457,0.525,0.802,1.16,1.03,1.91C301.524,54.563,301.638,55.404,301.638,56.348 M299.504,56.484c0-0.607-0.058-1.182-0.17-1.725
			c-0.113-0.541-0.303-1.016-0.562-1.424c-0.262-0.408-0.613-0.729-1.058-0.967c-0.446-0.236-1-0.355-1.664-0.355
			c-0.611,0-1.14,0.107-1.581,0.324c-0.441,0.215-0.804,0.521-1.088,0.918c-0.286,0.396-0.499,0.863-0.639,1.404
			c-0.137,0.541-0.207,1.131-0.207,1.771c0,0.617,0.059,1.195,0.17,1.736c0.114,0.541,0.303,1.014,0.568,1.418
			c0.263,0.404,0.617,0.725,1.063,0.961c0.445,0.238,1.001,0.355,1.664,0.355c0.604,0,1.129-0.107,1.574-0.324
			c0.445-0.215,0.813-0.52,1.096-0.912c0.286-0.389,0.497-0.855,0.63-1.398C299.436,57.727,299.504,57.133,299.504,56.484"/>
		<path fill="#FFFFFF" d="M306.732,62.088c0,0.068-0.017,0.125-0.05,0.17c-0.032,0.045-0.087,0.086-0.161,0.119
			c-0.075,0.033-0.181,0.057-0.313,0.074c-0.135,0.016-0.305,0.025-0.515,0.025c-0.198,0-0.364-0.01-0.497-0.025
			c-0.135-0.018-0.24-0.041-0.318-0.074c-0.079-0.033-0.133-0.074-0.162-0.119c-0.031-0.045-0.043-0.102-0.043-0.17v-16.68
			c0-0.066,0.012-0.124,0.043-0.174c0.029-0.05,0.083-0.092,0.162-0.124c0.078-0.033,0.184-0.059,0.318-0.075
			c0.133-0.017,0.299-0.026,0.497-0.026c0.21,0,0.38,0.01,0.515,0.026c0.132,0.017,0.237,0.042,0.313,0.075
			c0.074,0.032,0.129,0.074,0.161,0.124c0.033,0.05,0.05,0.107,0.05,0.174V62.088z"/>
		<path fill="#FFFFFF" d="M319.007,62.104c0,0.1-0.034,0.174-0.1,0.223c-0.069,0.051-0.16,0.088-0.275,0.111
			c-0.118,0.025-0.288,0.039-0.512,0.039c-0.218,0-0.39-0.014-0.52-0.039c-0.127-0.023-0.223-0.061-0.28-0.111
			c-0.059-0.049-0.087-0.123-0.087-0.223v-1.125c-0.491,0.523-1.038,0.932-1.644,1.225c-0.603,0.289-1.241,0.434-1.914,0.434
			c-0.593,0-1.127-0.074-1.605-0.229c-0.48-0.154-0.887-0.375-1.223-0.668c-0.338-0.293-0.601-0.65-0.787-1.074
			s-0.283-0.906-0.283-1.449c0-0.633,0.13-1.182,0.389-1.646c0.259-0.467,0.629-0.854,1.11-1.16
			c0.482-0.311,1.075-0.539,1.772-0.695c0.699-0.152,1.486-0.23,2.361-0.23h1.549v-0.873c0-0.434-0.047-0.816-0.139-1.15
			c-0.091-0.332-0.24-0.609-0.443-0.828c-0.203-0.223-0.468-0.389-0.793-0.5c-0.324-0.113-0.725-0.17-1.197-0.17
			c-0.508,0-0.964,0.061-1.368,0.182c-0.403,0.121-0.758,0.254-1.061,0.398c-0.305,0.146-0.558,0.279-0.761,0.4
			c-0.205,0.119-0.355,0.18-0.457,0.18c-0.066,0-0.125-0.014-0.175-0.049c-0.05-0.031-0.093-0.084-0.13-0.148
			c-0.039-0.068-0.064-0.152-0.084-0.256c-0.016-0.105-0.024-0.221-0.024-0.344c0-0.207,0.015-0.373,0.044-0.494
			c0.031-0.119,0.102-0.236,0.213-0.344c0.112-0.107,0.307-0.234,0.58-0.381c0.276-0.145,0.591-0.277,0.949-0.4
			c0.358-0.119,0.75-0.219,1.175-0.299c0.422-0.078,0.852-0.117,1.287-0.117c0.806,0,1.491,0.092,2.059,0.273
			c0.566,0.184,1.024,0.451,1.372,0.807c0.35,0.354,0.604,0.793,0.763,1.316c0.157,0.525,0.238,1.137,0.238,1.836V62.104z
			 M316.959,56.971h-1.761c-0.567,0-1.059,0.047-1.475,0.143c-0.417,0.096-0.761,0.236-1.034,0.426
			c-0.275,0.186-0.477,0.41-0.607,0.674c-0.128,0.262-0.192,0.564-0.192,0.904c0,0.584,0.185,1.049,0.556,1.393
			c0.37,0.346,0.889,0.518,1.554,0.518c0.54,0,1.042-0.137,1.506-0.412c0.461-0.273,0.945-0.693,1.454-1.26V56.971z"/>
		<path fill="#FFFFFF" d="M329.355,51.588c0,0.184-0.004,0.338-0.013,0.463c-0.007,0.125-0.022,0.223-0.048,0.293
			c-0.026,0.07-0.058,0.125-0.095,0.162s-0.089,0.057-0.155,0.057c-0.068,0-0.15-0.02-0.245-0.057s-0.203-0.074-0.325-0.111
			c-0.12-0.037-0.255-0.072-0.403-0.105c-0.152-0.033-0.313-0.051-0.487-0.051c-0.209,0-0.413,0.041-0.613,0.125
			c-0.2,0.082-0.41,0.219-0.63,0.412c-0.222,0.191-0.452,0.443-0.694,0.762c-0.24,0.316-0.509,0.703-0.797,1.16v7.391
			c0,0.068-0.017,0.125-0.05,0.17c-0.033,0.047-0.087,0.086-0.162,0.119c-0.077,0.033-0.181,0.057-0.313,0.074
			c-0.135,0.016-0.305,0.025-0.513,0.025c-0.2,0-0.366-0.01-0.499-0.025c-0.132-0.018-0.24-0.041-0.318-0.074
			c-0.079-0.033-0.133-0.072-0.162-0.119c-0.031-0.045-0.043-0.102-0.043-0.17V50.854c0-0.066,0.012-0.125,0.037-0.17
			c0.024-0.045,0.074-0.088,0.149-0.125c0.074-0.037,0.168-0.063,0.287-0.074c0.116-0.014,0.27-0.02,0.463-0.02
			c0.182,0,0.333,0.006,0.453,0.02c0.122,0.012,0.216,0.037,0.282,0.074s0.116,0.08,0.144,0.125c0.028,0.045,0.044,0.104,0.044,0.17
			v1.633c0.308-0.449,0.598-0.814,0.867-1.096c0.271-0.285,0.528-0.508,0.768-0.668c0.243-0.164,0.481-0.275,0.718-0.338
			c0.238-0.063,0.476-0.094,0.719-0.094c0.107,0,0.232,0.006,0.369,0.02c0.137,0.012,0.281,0.035,0.431,0.068
			s0.283,0.07,0.406,0.111c0.12,0.041,0.205,0.082,0.255,0.125c0.05,0.041,0.083,0.08,0.102,0.119
			c0.015,0.037,0.031,0.086,0.043,0.143c0.01,0.059,0.019,0.143,0.023,0.256C329.355,51.246,329.355,51.396,329.355,51.588"/>
		<path fill="#FFFFFF" d="M168.817,56.027c0,0.934,0.755,1.688,1.687,1.688s1.687-0.754,1.687-1.688c0-0.93-0.755-1.686-1.687-1.686
			S168.817,55.098,168.817,56.027"/>
		<path fill="#FFFFFF" d="M264.853,56.027c0,0.934,0.755,1.688,1.687,1.688c0.931,0,1.687-0.754,1.687-1.688
			c0-0.93-0.756-1.686-1.687-1.686C265.607,54.342,264.853,55.098,264.853,56.027"/>
	</g>
</g>
</svg>
